<?xml version="1.0" standalone="no"?><!DOCTYPE svg PUBLIC "-//W3C//DTD SVG 1.1//EN" "http://www.w3.org/Graphics/SVG/1.1/DTD/svg11.dtd"><svg class="icon" width="512px" height="512.00px" viewBox="0 0 1024 1024" version="1.1" xmlns="http://www.w3.org/2000/svg"><path d="M817.975 951.993c-11.176-5.972-16.853-17.38-28.206-23.113-28.383-22.756-50.912-39.777-79.355-62.89H478.5c-34.265-0.197-61.985-28.222-62.147-62.832V688.785h294.061c25.61 0.209 50.231-9.975 68.341-28.266 18.11-18.291 28.192-43.16 27.985-69.027V408.614h96.207c16.182-0.595 31.804 6.037 42.706 18.13 10.903 12.095 15.98 28.423 13.883 44.641v331.773c-0.289 34.556-27.936 62.507-62.148 62.831h-45.413v68.565c-0.04 9.033-4.208 17.541-11.294 23.054a8.662 8.662 0 0 1-6.209 2.392 26.821 26.821 0 0 1-16.497-8.007z" fill="#FA8B14" /><path d="M692.261 64c17.314 0.504 33.688 8.063 45.395 20.956 11.708 12.894 17.75 30.023 16.752 47.489v446.087c-0.382 34.526-27.965 62.439-62.147 62.89H331.56l-130.09 98.607-0.118-98.606h-75.097c-34.182-0.452-61.765-28.365-62.147-62.89V132.444c-0.998-17.466 5.044-34.595 16.751-47.489C92.565 72.063 108.94 64.504 126.254 64H692.26zM579.734 286.954h-0.592c-34.307 0.196-62.071 28.238-62.265 62.89 0.321 34.589 28.02 62.54 62.265 62.831 34.173-0.42 61.765-28.315 62.148-62.83-0.125-34.403-27.5-62.37-61.556-62.891z m-175.68 0h-0.473c-34.281 0.26-62.008 28.265-62.266 62.89 0.384 34.562 28.047 62.476 62.266 62.831 34.179-0.357 61.773-28.307 62.029-62.83 0.002-34.456-27.445-62.498-61.556-62.891z m-169.649 0h-0.59c-34.282 0.26-62.009 28.265-62.266 62.89 0.384 34.562 28.047 62.476 62.265 62.831 34.225-0.292 61.89-28.261 62.147-62.83-0.061-34.43-27.472-62.434-61.556-62.891z" fill="#2075CC" /></svg>